<svg width="240" height="240" viewBox="0 0 24 24" fill="none" xmlns="http://www.w3.org/2000/svg">
    <path fill-rule="evenodd" clip-rule="evenodd" d="M4.63631 8.47002C6.23667 6.86949 8.75054 5.25 12.3333 5.25C15.9161 5.25 18.43 6.86949 20.0304 8.47002C20.8284 9.26813 21.4037 10.0649 21.7805 10.6635C21.9693 10.9633 22.1093 11.2151 22.2035 11.3948C22.2505 11.4847 22.2862 11.5568 22.3109 11.6079C22.3232 11.6335 22.3327 11.6539 22.3396 11.6687L22.3478 11.6867L22.3504 11.6925L22.3514 11.6946L22.3517 11.6954C22.3519 11.6957 22.352 11.6961 21.6667 12.0007C22.352 12.3053 22.3519 12.3056 22.3517 12.306L22.3513 12.3068L22.3504 12.3089L22.3478 12.3147L22.3396 12.3326C22.3327 12.3475 22.3231 12.3678 22.3108 12.3934C22.2862 12.4446 22.2505 12.5166 22.2034 12.6065C22.1093 12.7861 21.9693 13.0379 21.7805 13.3377C21.4037 13.9361 20.8283 14.7327 20.0303 15.5307C18.4299 17.1309 15.9161 18.75 12.3333 18.75C8.75059 18.75 6.23674 17.1309 4.63637 15.5307C3.83834 14.7327 3.263 13.9361 2.88618 13.3377C2.6974 13.0379 2.55737 12.7861 2.46325 12.6065C2.41616 12.5166 2.38047 12.4446 2.35584 12.3934C2.34352 12.3678 2.33396 12.3475 2.32711 12.3326L2.31887 12.3147L2.31626 12.3089L2.31533 12.3068L2.31496 12.306C2.3148 12.3056 2.31465 12.3053 3 12.0007C2.31463 11.6961 2.31478 11.6957 2.31494 11.6954L2.31531 11.6946L2.31623 11.6925L2.31884 11.6867L2.32709 11.6687C2.33393 11.6539 2.34349 11.6335 2.35581 11.6079C2.38044 11.5568 2.41613 11.4847 2.46321 11.3948C2.55734 11.2151 2.69736 10.9633 2.88614 10.6635C3.26296 10.0649 3.83829 9.26813 4.63631 8.47002ZM3 12.0007L2.31463 11.6961C2.22845 11.89 2.22846 12.1114 2.31465 12.3053L3 12.0007ZM3.84002 12.0006C3.91627 12.1415 4.021 12.3248 4.15549 12.5384C4.487 13.0649 4.99499 13.7681 5.69697 14.47C7.09659 15.8694 9.24941 17.25 12.3333 17.25C15.4173 17.25 17.5701 15.8694 18.9697 14.47C19.6717 13.7681 20.1797 13.0649 20.5112 12.5384C20.6457 12.3248 20.7504 12.1415 20.8266 12.0006C20.7504 11.8597 20.6456 11.6763 20.5111 11.4626C20.1796 10.936 19.6716 10.2327 18.9696 9.53063C17.57 8.13084 15.4172 6.75 12.3333 6.75C9.24946 6.75 7.09666 8.13084 5.69703 9.53063C4.99504 10.2327 4.48704 10.936 4.15553 11.4626C4.02102 11.6763 3.91627 11.8597 3.84002 12.0006ZM21.6667 12.0007L22.352 12.3053C22.4382 12.1114 22.4382 11.89 22.352 11.6961L21.6667 12.0007ZM3.68472 11.6946L3.68473 11.6946Z" fill="#504B5A"/>
    <path fill-rule="evenodd" clip-rule="evenodd" d="M12.3333 9.41736C10.9066 9.41736 9.75 10.574 9.75 12.0007C9.75 13.4274 10.9066 14.584 12.3333 14.584C13.7601 14.584 14.9167 13.4274 14.9167 12.0007C14.9167 10.574 13.7601 9.41736 12.3333 9.41736ZM8.25 12.0007C8.25 9.74553 10.0782 7.91736 12.3333 7.91736C14.5885 7.91736 16.4167 9.74553 16.4167 12.0007C16.4167 14.2559 14.5885 16.084 12.3333 16.084C10.0782 16.084 8.25 14.2559 8.25 12.0007Z" fill="#504B5A"/>
</svg>
